<?xml version="1.0" encoding="iso-8859-1"?>
<!-- Generator: Adobe Illustrator 19.0.0, SVG Export Plug-In . SVG Version: 6.00 Build 0)  -->
<svg xmlns="http://www.w3.org/2000/svg" xmlns:xlink="http://www.w3.org/1999/xlink" version="1.1" id="Capa_1" x="0px" y="0px" viewBox="0 0 511.999 511.999" style="enable-background:new 0 0 511.999 511.999;" xml:space="preserve" width="512px" height="512px">
<g>
	<g>
		<g>
			<path d="M462.96,61.731c-8.504-4.829-18.028-9.096-28.306-12.682c-4.37-1.527-9.121,0.331-11.299,4.413     c-2.173,4.072-1.072,9.041,2.619,11.814c13.764,10.343,32.605,26.501,37.297,47.314c4.434,19.667,1.51,35.492-8.689,47.036     c-11.801,13.355-29.505,16.876-38.517,15.99c-0.025-0.003-0.05-0.005-0.074-0.007c-6.144-0.612-12.932-2.052-20.175-4.281     c-3.844-1.179-7.924,0.976-9.107,4.823c-1.183,3.847,0.976,7.923,4.822,9.106c8.195,2.522,15.963,4.157,23.089,4.861     c0.028,0.003,0.056,0.005,0.084,0.008c14.377,1.393,36.382-4.532,50.799-20.85c9.264-10.485,18.863-29.386,11.985-59.891     c-2.77-12.288-9.176-22.957-16.816-32.027c27.265,17.394,39.459,42.617,36.26,75.056c-2.889,29.29-14.162,49.093-34.464,60.541     c-15.822,8.921-35.656,11.896-56.706,11.25c-0.228-0.03-0.455-0.072-0.687-0.08c-11.147-0.375-23.345-1.782-36.254-4.183     c-0.002,0-0.005,0-0.007-0.001c-51.668-9.71-101.104-32.626-109.673-36.719c-1.986-0.949-4.295-0.949-6.281,0     c-8.573,4.094-58.05,27.03-109.743,36.733c-0.006,0.001-0.013,0.001-0.019,0.002c-12.874,2.391-25.044,3.793-36.172,4.168     c-0.234,0.008-0.462,0.051-0.692,0.081c-21.048,0.645-40.88-2.33-56.701-11.251c-20.302-11.448-31.575-31.251-34.463-60.541     c-3.199-32.439,8.995-57.662,36.26-75.056c-7.641,9.07-14.046,19.74-16.816,32.027c-6.878,30.505,2.721,49.406,11.985,59.891     c14.415,16.314,36.417,22.24,50.792,20.85c0.031-0.003,0.062-0.006,0.092-0.009c27.214-2.69,62.208-18.554,104.01-47.156     c15.526-10.624,36.658-7.991,49.151,6.128c1.383,1.564,3.37,2.458,5.457,2.458c2.087,0,4.074-0.895,5.457-2.458     c12.493-14.119,33.624-16.751,49.151-6.128c18.598,12.725,36.123,23.074,52.088,30.758c3.626,1.745,7.981,0.221,9.726-3.405     c1.745-3.626,0.221-7.981-3.405-9.726c-15.304-7.366-32.187-17.343-50.179-29.653c-19.459-13.314-45.235-11.657-62.838,3.171     c-17.601-14.824-43.381-16.482-62.838-3.171c-39.164,26.796-72.757,42.242-97.152,44.674c-0.025,0.002-0.05,0.004-0.075,0.007     c-9.015,0.884-26.718-2.636-38.517-15.99c-10.2-11.544-13.124-27.369-8.689-47.036c4.693-20.813,23.534-36.971,37.297-47.314     c3.69-2.773,4.792-7.742,2.619-11.814c-2.178-4.083-6.93-5.939-11.298-4.413c-10.279,3.586-19.803,7.853-28.307,12.682     C13.382,81.985-3.38,113.837,0.565,153.844c3.342,33.887,17.408,58.046,41.808,71.804c13.364,7.536,28.929,11.408,45.493,12.695     c-47.291,41.473-53.168,56.827-52.645,65.544c0.263,4.378,2.416,8.105,6.063,10.496c9.355,6.134,21.938,10.665,37.401,13.467     c3.965,0.717,7.752-1.911,8.469-5.871c0.717-3.959-1.911-7.752-5.871-8.469c-13.038-2.362-23.907-6.153-31.494-10.981     c0.353-2.766,5.066-17.422,60.069-63.879c3.276-0.145,6.57-0.372,9.872-0.665c-5.631,4.681-10.978,9.221-15.974,13.571     c-17.438,15.181-30.578,27.964-39.055,37.994c-2.062,2.439-2.75,5.725-1.84,8.79c0.91,3.065,3.28,5.443,6.337,6.361     c11.617,3.492,27.001,5.577,41.152,5.577c6.42,0,12.145-0.43,15.717-1.182c1.161-0.247,2.258-0.712,3.255-1.378     c2.893-1.929,8.268-6.917,15.339-19.611l0.896,5.176l0.635,3.667c-8.446,13.388-14.622,16.749-17.633,17.544     c-3.837,1.014-10.619,1.613-18.215,1.613c-0.175,0-0.347-0.003-0.526-0.001c-4.012,0-7.272,3.246-7.286,7.261     c-0.014,4.025,3.237,7.298,7.262,7.312c0.192,0.001,0.382,0.001,0.572,0.001c9.023,0,16.791-0.742,21.916-2.097     c6.079-1.605,11.965-5.684,17.792-12.343c3.226,9.811,9.393,18.749,17.933,25.777c6.928,5.699,11.627,12.959,13.235,20.442     l7.107,33.097c0.81,3.771,2.343,7.251,4.434,10.307c0.168,7.207,1.247,14.447,4.261,19.215c1.821,2.879,4.072,5.322,6.716,7.4     c2.348,17.663,17.276,31.003,35.514,31.003h33.449c18.237,0,33.166-13.34,35.514-31.003c2.645-2.078,4.896-4.521,6.716-7.4     c3.004-4.751,4.085-11.957,4.259-19.14v0.001c2.117-3.075,3.67-6.581,4.487-10.383l7.108-33.097     c1.607-7.482,6.307-14.742,13.235-20.442c8.527-7.017,14.689-15.94,17.919-25.734c5.814,6.634,11.688,10.699,17.754,12.3     c5.117,1.352,12.906,2.097,21.932,2.097c0.003,0,0.003,0,0.005,0c21.374,0,50.74-4.282,69.063-16.297     c3.647-2.391,5.799-6.119,6.062-10.496c0.523-8.718-5.354-24.073-52.646-65.545c16.563-1.288,32.133-5.16,45.493-12.693     c24.4-13.759,38.467-37.918,41.809-71.805C515.38,113.837,498.618,81.985,462.96,61.731z M137.457,270.066     c-7.978,17.275-13.62,23.279-15.525,24.969c-2.273,0.342-6.27,0.67-11.581,0.67c-9.735,0-20.051-1.071-28.978-2.949     c6.407-6.853,16.445-16.706,31.954-30.208c7.158-6.234,15.034-12.857,23.49-19.757c0,0.003,0.001,0.006,0.001,0.008     c0.004,0.027,0.008,0.053,0.012,0.08l3.539,20.437C138.404,267.938,137.696,269.549,137.457,270.066z M272.725,448.909h-33.449     c-6.913,0-13.025-3.23-16.902-8.295c9.396,2.154,20.676,2.925,33.497,3.097c0.011,0,0.021,0,0.032,0.001     c0.032,0.001,0.065,0.001,0.097,0.001c0.032,0,0.065,0,0.097-0.001c0.011,0,0.021,0,0.032-0.001     c12.822-0.172,24.102-0.943,33.497-3.097C285.75,445.678,279.638,448.909,272.725,448.909z M302.638,417.289     c-1.998,3.161-5.423,5.623-10.566,7.467c-0.206,0.073-0.413,0.147-0.625,0.218c-0.258,0.088-0.517,0.175-0.783,0.26     c-0.541,0.171-1.094,0.338-1.671,0.497c-0.071,0.02-0.146,0.039-0.218,0.058c-6.878,1.866-16.275,2.929-28.642,3.264     c-0.197,0.005-0.396,0.01-0.594,0.015c-1.156,0.029-2.331,0.053-3.539,0.07c-1.208-0.016-2.383-0.041-3.539-0.07     c-0.199-0.005-0.397-0.01-0.594-0.015c-12.367-0.335-21.764-1.398-28.642-3.264c-0.072-0.02-0.146-0.039-0.218-0.058     c-0.577-0.159-1.13-0.326-1.671-0.497c-0.266-0.085-0.525-0.172-0.783-0.26c-0.212-0.071-0.419-0.145-0.625-0.218     c-5.143-1.844-8.567-4.306-10.566-7.467c-3.259-5.154-1.92-25.561-0.358-32.29c2.522-10.858,3.796-10.879,9.919-10.98     c0.32-0.006,0.638-0.008,0.957-0.008c7.222,0,14.48,1.334,21.572,3.967l12.012,4.458c1.636,0.607,3.436,0.607,5.071,0     l12.012-4.458c7.405-2.75,14.979-4.1,22.529-3.959c6.123,0.102,7.397,0.122,9.919,10.98     C304.558,391.728,305.897,412.136,302.638,417.289z M361.061,237.921c-0.009,0.173-0.018,0.346-0.03,0.519     c-0.001,0.022-0.003,0.043-0.005,0.065c-0.055,0.794-0.128,1.588-0.234,2.381c-0.001,0.008-0.002,0.017-0.003,0.025l-3.149,18.16     l-0.69,3.98v0.001l-4.39,25.319l-2.867,16.534c-0.019,0.086-0.032,0.176-0.045,0.266c-1.309,9.694-6.588,18.783-14.865,25.592     c-9.457,7.782-15.93,17.952-18.224,28.636l-2.619,12.193c0,0,0.001,0.001,0.001,0.002c-3.958-8.702-9.992-11.971-20.625-12.147     c-9.359-0.153-18.732,1.487-27.841,4.868L256,367.833l-9.476-3.517c-9.109-3.381-18.477-5.012-27.841-4.868     c-10.601,0.176-16.631,3.425-20.59,12.068l-2.602-12.116c-2.295-10.685-8.767-20.855-18.223-28.635     c-8.277-6.811-13.556-15.9-14.864-25.593c-0.012-0.09-0.026-0.179-0.041-0.269l-5.97-34.474l-1.296-7.481v-0.002l-3.883-22.425     c-0.104-0.774-0.176-1.548-0.231-2.323c-0.002-0.03-0.004-0.059-0.007-0.089c-0.011-0.155-0.02-0.309-0.029-0.463     c-0.038-0.671-0.058-1.341-0.059-2.01c0-0.222,0.003-0.444,0.006-0.666c0.008-0.537,0.034-1.072,0.066-1.607     c45.889-9.272,88.47-27.781,105.041-35.508c16.569,7.727,59.136,26.234,105.016,35.507c0.044,0.619,0.076,1.24,0.088,1.862     c0.004,0.208,0.008,0.415,0.009,0.623C361.116,236.537,361.098,237.229,361.061,237.921z M375.169,243.268     c0.014-0.083,0.027-0.165,0.039-0.249c0.009-0.063,0.017-0.124,0.025-0.187c8.437,6.885,16.296,13.495,23.441,19.716     c15.509,13.502,25.547,23.355,31.953,30.208c-8.927,1.878-19.243,2.949-28.978,2.949c-5.316,0-9.315-0.329-11.581-0.67     c-1.899-1.684-7.543-7.687-15.525-24.97c-0.238-0.514-0.936-2.107-2.868-6.645L375.169,243.268z M462.21,302.53     c-15.696,10.004-41.497,13.578-60.557,13.578c-0.001,0-0.004,0-0.005,0c-7.579,0-14.387-0.603-18.212-1.614     c-3.003-0.792-9.163-4.141-17.589-17.475l1.532-8.834c7.05,12.638,12.408,17.608,15.29,19.53c1.003,0.67,2.101,1.135,3.273,1.383     c3.561,0.75,9.286,1.18,15.706,1.18c14.151,0,29.535-2.084,41.149-5.576c3.06-0.918,5.43-3.297,6.34-6.362     c0.91-3.065,0.222-6.35-1.839-8.789c-8.477-10.031-21.617-22.814-39.055-37.995c-4.996-4.35-10.342-8.889-15.972-13.569     c3.302,0.293,6.595,0.519,9.871,0.664C457.15,285.114,461.858,299.766,462.21,302.53z" fill="#FFFFFF"/>
			<path d="M231.506,387.807c-2.459-3.185-7.034-3.775-10.221-1.315c-3.186,2.458-3.774,7.034-1.315,10.22l10.687,13.845     c1.436,1.86,3.593,2.834,5.773,2.834c1.555,0,3.122-0.495,4.447-1.519c3.186-2.458,3.774-7.034,1.315-10.22L231.506,387.807z" fill="#FFFFFF"/>
			<path d="M290.715,386.492c-3.186-2.459-7.762-1.871-10.221,1.315l-10.687,13.845c-2.459,3.186-1.87,7.762,1.315,10.22     c1.326,1.024,2.892,1.519,4.447,1.519c2.18,0,4.338-0.974,5.773-2.834l10.687-13.845     C294.489,393.526,293.901,388.95,290.715,386.492z" fill="#FFFFFF"/>
			<path d="M208.397,301.936l-14.434-9.312c-3.381-2.179-7.892-1.208-10.073,2.174c-2.182,3.381-1.209,7.891,2.173,10.073     l14.434,9.312c1.222,0.788,2.59,1.164,3.944,1.164c2.392,0,4.736-1.177,6.13-3.338     C212.752,308.628,211.779,304.118,208.397,301.936z" fill="#FFFFFF"/>
			<path d="M191.597,268.824c-4.013,0.294-7.028,3.787-6.734,7.8c0.295,4.014,3.791,7.027,7.801,6.734     c10.226-0.731,19.147,6.955,19.898,17.175c0.281,3.832,3.478,6.753,7.26,6.753c0.179,0,0.36-0.007,0.541-0.02     c4.013-0.294,7.028-3.787,6.734-7.8C225.757,281.231,209.825,267.469,191.597,268.824z" fill="#FFFFFF"/>
			<path d="M318.037,292.624l-14.434,9.312c-3.381,2.182-4.354,6.692-2.173,10.073c1.394,2.16,3.737,3.338,6.13,3.338     c1.353,0,2.722-0.377,3.944-1.164l14.434-9.312c3.381-2.182,4.354-6.692,2.173-10.073     C325.928,291.415,321.419,290.443,318.037,292.624z" fill="#FFFFFF"/>
			<path d="M319.335,283.358c4.021,0.301,7.506-2.719,7.801-6.734c0.295-4.013-2.72-7.506-6.734-7.8     c-18.236-1.352-34.161,12.405-35.5,30.642c-0.295,4.013,2.72,7.506,6.734,7.8c0.182,0.013,0.362,0.02,0.541,0.02     c3.781,0,6.978-2.921,7.26-6.753C300.188,290.313,309.122,282.621,319.335,283.358z" fill="#FFFFFF"/>
		</g>
	</g>
</g>
<g>
</g>
<g>
</g>
<g>
</g>
<g>
</g>
<g>
</g>
<g>
</g>
<g>
</g>
<g>
</g>
<g>
</g>
<g>
</g>
<g>
</g>
<g>
</g>
<g>
</g>
<g>
</g>
<g>
</g>
</svg>
